<?xml version="1.0" encoding="UTF-8" standalone="no"?>
<svg
   xmlns:dc="http://purl.org/dc/elements/1.1/"
   xmlns:cc="http://creativecommons.org/ns#"
   xmlns:rdf="http://www.w3.org/1999/02/22-rdf-syntax-ns#"
   xmlns:svg="http://www.w3.org/2000/svg"
   xmlns="http://www.w3.org/2000/svg"
   xmlns:xlink="http://www.w3.org/1999/xlink"
   xmlns:sodipodi="http://sodipodi.sourceforge.net/DTD/sodipodi-0.dtd"
   xmlns:inkscape="http://www.inkscape.org/namespaces/inkscape"
   width="303.031"
   height="288.008"
   viewBox="0 0 80.177 76.202"
   version="1.1"
   id="svg196"
   sodipodi:docname="Seal of Sidoarjo Regency (2).svg"
   inkscape:version="1.0.1 (3bc2e813f5, 2020-09-07)">
  <metadata
     id="metadata200">
    <rdf:RDF>
      <cc:Work
         rdf:about="">
        <dc:format>image/svg+xml</dc:format>
        <dc:type
           rdf:resource="http://purl.org/dc/dcmitype/StillImage" />
      </cc:Work>
    </rdf:RDF>
  </metadata>
  <sodipodi:namedview
     pagecolor="#ffffff"
     bordercolor="#666666"
     borderopacity="1"
     objecttolerance="10"
     gridtolerance="10"
     guidetolerance="10"
     inkscape:pageopacity="0"
     inkscape:pageshadow="2"
     inkscape:window-width="1366"
     inkscape:window-height="705"
     id="namedview198"
     showgrid="false"
     inkscape:zoom="0.7811154"
     inkscape:cx="150.91945"
     inkscape:cy="34.173324"
     inkscape:window-x="-8"
     inkscape:window-y="-8"
     inkscape:window-maximized="1"
     inkscape:current-layer="svg196" />
  <style
     id="style2"><![CDATA[.B{fill:#fff000}.C{stroke:#8e8600}.D{stroke-width:.265}.E{fill:#fff889}.F{opacity:.999}.G{fill-rule:evenodd}.H{stroke-linejoin:round}]]></style>
  <defs
     id="defs18">
    <linearGradient
       id="A"
       gradientUnits="userSpaceOnUse">
      <stop
         offset="0"
         stop-color="#fff000"
         id="stop4" />
      <stop
         offset="1"
         stop-color="#d5c900"
         id="stop6" />
    </linearGradient>
    <linearGradient
       xlink:href="#A"
       id="B"
       x1="184.956"
       y1="206.434"
       x2="188.699"
       y2="211.03" />
    <linearGradient
       xlink:href="#A"
       id="C"
       x1="225.003"
       y1="206.435"
       x2="221.26"
       y2="211.031" />
    <radialGradient
       id="D"
       cx="205.178"
       cy="194.638"
       fx="205.178"
       fy="194.638"
       r="16.158"
       gradientUnits="userSpaceOnUse">
      <stop
         offset="0"
         stop-color="#5dceff"
         id="stop11" />
      <stop
         offset="1"
         stop-color="#00a2e9"
         id="stop13" />
    </radialGradient>
    <path
       id="E"
       d="M209.069 209.929c2.536-1.353 3.641-3.333 3.494-5.378-1.755 1-3.542 2.268-3.494 5.378z" />
    <path
       id="F"
       d="M210.129 208.465c1.612-.91 1.359-1.887 1.787-2.839-.744.933-1.54 1.861-1.787 2.839z" />
  </defs>
  <g
     class="G"
     id="g30"
     transform="translate(-64.912,-153.599)">
    <g
       stroke-width="0.668"
       id="g24">
      <path
         d="m 100.544,153.973 v 1.027 2.468 c -0.041,1.005 -0.604,1.705 -1.741,2.483 -1.137,0.778 -2.772,1.495 -4.46,2.319 -1.688,0.824 -3.442,1.76 -4.829,3.139 -1.151,1.144 -1.882,2.723 -2.153,4.57 -1.847,-0.32 -3.58,-0.116 -5.028,0.627 -1.744,0.894 -3.176,2.274 -4.481,3.63 l -3.584,3.543 c -1.091,0.845 -1.929,1.168 -2.899,0.899 l -3.33,-1.075 -1.495,4.636 -1.24,3.849 3.326,1.071 c 0.943,0.348 1.434,1.097 1.826,2.414 0.392,1.317 0.573,3.089 0.837,4.945 0.264,1.856 0.618,3.81 1.499,5.553 0.732,1.448 2.001,2.631 3.669,3.46 -0.857,1.654 -1.183,3.36 -0.919,4.961 0.318,1.927 1.187,3.711 2.069,5.365 l 2.243,4.485 c 0.461,1.295 0.507,2.19 -0.048,3.027 l -0.464,0.7 -0.025,-0.025 -1.563,2.156 3.943,2.858 3.272,2.371 2.052,-2.829 c 0.624,-0.791 1.492,-1.026 2.872,-0.988 1.38,0.038 3.13,0.419 4.984,0.743 1.854,0.324 3.826,0.594 5.761,0.286 1.604,-0.256 3.121,-1.111 4.421,-2.456 1.3,1.345 2.817,2.201 4.421,2.456 1.935,0.308 3.908,0.038 5.761,-0.286 l 4.982,-0.743 c 1.38,-0.038 2.25,0.198 2.874,0.988 l 2.052,2.829 3.272,-2.371 3.943,-2.858 -1.551,-2.139 -0.025,0.023 -0.476,-0.716 c -0.557,-0.838 -0.51,-1.735 -0.046,-3.033 0.464,-1.298 1.368,-2.839 2.251,-4.497 0.883,-1.658 1.752,-3.445 2.066,-5.377 0.261,-1.607 -0.075,-3.32 -0.948,-4.978 1.639,-0.843 2.884,-2.036 3.601,-3.481 0.864,-1.741 1.21,-3.685 1.472,-5.531 l 0.835,-4.916 c 0.392,-1.307 0.882,-2.05 1.82,-2.396 h 0.002 l 3.327,-1.071 -1.24,-3.849 -1.495,-4.636 -3.332,1.075 c -0.969,0.268 -1.807,-0.055 -2.897,-0.899 -1.09,-0.844 -2.279,-2.187 -3.584,-3.543 -1.305,-1.356 -2.737,-2.736 -4.481,-3.63 -1.448,-0.742 -3.181,-0.947 -5.028,-0.627 -0.271,-1.847 -1.001,-3.426 -2.153,-4.57 -1.387,-1.379 -3.141,-2.315 -4.829,-3.139 l -4.46,-2.319 c -1.136,-0.779 -1.699,-1.478 -1.741,-2.483 v -3.495 h -4.87 z"
         fill="#00a2e9"
         stroke="#004766"
         class="F"
         id="path20" />
      <path
         d="m 102.875,156.304 v 1.164 a 2.331,2.331 0 0 1 -0.002,0.095 c -0.075,1.829 -1.375,3.367 -2.752,4.311 -1.447,0.991 -3.122,1.694 -4.756,2.491 -1.634,0.797 -3.142,1.639 -4.206,2.698 -0.741,0.737 -1.28,1.815 -1.491,3.255 a 2.331,2.331 0 0 1 -2.704,1.957 c -1.44,-0.25 -2.635,-0.071 -3.566,0.406 -1.338,0.686 -2.604,1.86 -3.866,3.172 -1.262,1.312 -2.446,2.694 -3.835,3.769 -1.321,1.022 -3.183,1.791 -4.949,1.302 a 2.331,2.331 0 0 1 -0.093,-0.027 l -1.112,-0.36 -0.779,2.418 -0.524,1.63 0.758,0.244 h -0.364 a 2.331,2.331 0 0 1 0.806,0.143 c 1.716,0.634 2.776,2.342 3.251,3.936 0.5,1.678 0.655,3.485 0.911,5.282 0.256,1.797 0.595,3.488 1.273,4.829 0.473,0.935 1.328,1.78 2.626,2.425 a 2.331,2.331 0 0 1 1.031,3.158 c -0.667,1.287 -0.859,2.477 -0.689,3.51 0.245,1.482 0.972,3.046 1.826,4.647 0.854,1.601 1.795,3.151 2.383,4.8 0.558,1.568 0.711,3.573 -0.302,5.098 l -0.464,0.698 a 2.331,2.331 0 0 1 -0.265,0.331 l 2.046,1.483 1.387,1.004 0.683,-0.944 a 2.331,2.331 0 0 1 0.058,-0.075 c 1.136,-1.438 3.094,-1.92 4.765,-1.874 1.755,0.048 3.529,0.464 5.322,0.777 1.793,0.313 3.508,0.517 4.992,0.28 1.031,-0.164 2.099,-0.726 3.114,-1.775 a 2.331,2.331 0 0 1 3.35,0 c 1.014,1.049 2.083,1.611 3.114,1.775 1.483,0.236 3.198,0.033 4.992,-0.28 1.794,-0.313 3.565,-0.73 5.32,-0.777 1.672,-0.046 3.63,0.434 4.767,1.874 a 2.331,2.331 0 0 1 0.058,0.075 l 0.683,0.944 1.387,-1.004 2.044,-1.481 a 2.331,2.331 0 0 1 -0.251,-0.315 l -0.476,-0.716 c -1.014,-1.526 -0.861,-3.535 -0.3,-5.106 0.59,-1.652 1.534,-3.206 2.389,-4.81 0.855,-1.604 1.581,-3.17 1.822,-4.653 0.168,-1.036 -0.03,-2.228 -0.71,-3.52 a 2.331,2.331 0 0 1 0.998,-3.158 c 1.271,-0.654 2.111,-1.504 2.578,-2.445 0.667,-1.345 0.999,-3.032 1.253,-4.821 0.254,-1.789 0.41,-3.588 0.911,-5.259 0.476,-1.586 1.538,-3.284 3.245,-3.914 a 2.331,2.331 0 0 1 0.748,-0.143 h -0.306 l 0.758,-0.244 -0.524,-1.63 -0.779,-2.418 -1.114,0.36 a 2.331,2.331 0 0 1 -0.095,0.029 c -1.765,0.487 -3.625,-0.281 -4.945,-1.304 -1.389,-1.076 -2.573,-2.458 -3.835,-3.769 -1.262,-1.311 -2.528,-2.486 -3.866,-3.172 -0.931,-0.477 -2.126,-0.656 -3.566,-0.406 a 2.331,2.331 0 0 1 -2.704,-1.957 c -0.211,-1.44 -0.75,-2.518 -1.491,-3.255 -1.065,-1.058 -2.572,-1.901 -4.206,-2.698 -1.634,-0.797 -3.309,-1.5 -4.756,-2.491 -1.377,-0.944 -2.677,-2.482 -2.752,-4.311 a 2.331,2.331 0 0 1 -0.002,-0.095 v -1.164 h -2.539 z"
         fill="#00b157"
         stroke="#007137"
         class="F"
         id="path22" />
    </g>
    <path
       d="m 105,161.38 -1.547,4.761 h -5.006 l 4.05,2.942 -1.547,4.761 4.05,-2.942 4.05,2.942 -1.547,-4.761 4.05,-2.942 h -5.006 z"
       class="B F"
       id="path26" />
    <path
       d="m 105,161.38 -1.547,4.761 1.547,2.129 -6.553,-2.129 4.05,2.942 2.502,-0.813 -4.049,5.574 4.05,-2.942 -0.001,-2.632 4.051,5.574 -1.547,-4.761 -2.504,-0.813 6.553,-2.129 h -5.006 l -1.548,2.129 z"
       fill="#d9cc00"
       class="F"
       id="path28" />
  </g>
  <path
     d="m 33.535,12.542 4.05,2.942 -1.547,4.761 4.05,-2.942 4.05,2.942 -1.547,-4.761 4.05,-2.943 h -5.006 l -1.547,-4.76 -1.547,4.761 z"
     fill="none"
     stroke="#968d00"
     stroke-width="0.365"
     id="path32" />
  <g
     id="g1267">
    <g
       transform="translate(-164.891,-153.599)"
       id="g52">
      <g
         stroke="#968d00"
         stroke-width="0.37"
         class="H"
         id="g44">
        <path
           d="m 192.308,209.85 c -3.649,-3.091 -4.975,-6.282 -6.554,-9.463 l -0.421,4.977 -4.241,-4.101 c 1.086,4.019 2.785,8.037 6.379,12.056 z"
           fill="url(#B)"
           id="path34"
           style="fill:url(#B);" />
        <path
           d="m 189.209,208.742 -4.118,3.346 2.38,1.232 4.836,-3.47 z"
           fill="#cdc100"
           id="path36" />
        <path
           d="m 217.651,209.85 c 3.649,-3.091 4.975,-6.282 6.554,-9.463 l 0.421,4.977 4.241,-4.101 c -1.086,4.019 -2.785,8.037 -6.379,12.056 z"
           fill="url(#C)"
           id="path38"
           style="fill:url(#C);" />
        <path
           d="m 220.75,208.742 4.118,3.346 -2.38,1.232 -4.836,-3.47 z"
           fill="#cdc100"
           id="path40" />
        <path
           d="m 189.209,208.742 -4.118,3.346 a 25.627,25.627 0 0 0 39.776,0 l -4.118,-3.346 a 20.321,20.321 0 0 1 -31.541,-10e-4 z"
           class="B F G"
           id="path42" />
      </g>
      <path
         d="m 186.917,212.171 1.767,-1.804 0.364,0.357 -0.785,0.801 1.521,-0.081 0.49,0.48 -1.368,0.037 -0.362,1.803 -0.471,-0.462 0.333,-1.332 -0.591,0.012 -0.534,0.545 z"
         id="path46" />
      <path
         d="m 190.532,215.35 -0.434,-0.346 0.185,-0.586 -0.789,-0.629 -0.521,0.319 -0.423,-0.337 2.343,-1.361 0.422,0.336 z m -0.111,-1.366 0.312,-0.95 -0.851,0.52 z m 1.71,-0.607 0.848,0.547 q 0.252,0.162 0.361,0.264 0.111,0.101 0.165,0.23 0.055,0.13 0.049,0.284 -0.006,0.152 -0.095,0.29 -0.096,0.149 -0.258,0.221 -0.16,0.073 -0.338,0.047 0.158,0.182 0.174,0.385 0.016,0.203 -0.102,0.387 -0.093,0.145 -0.25,0.238 -0.154,0.093 -0.325,0.1 -0.168,0.006 -0.351,-0.085 -0.115,-0.058 -0.526,-0.319 l -0.722,-0.466 z m 0.201,0.63 -0.317,0.491 0.281,0.181 q 0.25,0.162 0.316,0.194 0.118,0.058 0.221,0.036 0.105,-0.023 0.171,-0.125 0.064,-0.098 0.048,-0.195 -0.013,-0.097 -0.112,-0.179 -0.059,-0.048 -0.362,-0.243 z m -0.544,0.844 -0.366,0.567 0.397,0.256 q 0.232,0.149 0.302,0.177 0.107,0.044 0.209,0.016 0.105,-0.029 0.178,-0.142 0.062,-0.095 0.058,-0.192 -0.003,-0.096 -0.072,-0.184 -0.067,-0.086 -0.36,-0.275 z m 2.276,-0.242 0.454,0.232 -0.624,1.217 q -0.148,0.29 -0.176,0.384 -0.042,0.153 0.024,0.293 0.068,0.139 0.258,0.237 0.193,0.099 0.331,0.071 0.139,-0.03 0.218,-0.134 0.079,-0.105 0.215,-0.372 l 0.637,-1.243 0.454,0.232 -0.605,1.181 q -0.207,0.405 -0.33,0.553 -0.122,0.148 -0.281,0.212 -0.157,0.065 -0.358,0.049 -0.2,-0.017 -0.467,-0.154 -0.322,-0.165 -0.451,-0.324 -0.127,-0.16 -0.163,-0.327 -0.035,-0.169 0.001,-0.315 0.054,-0.216 0.248,-0.593 z m 1.135,3.381 0.942,-2.343 0.759,0.305 q 0.431,0.174 0.548,0.261 0.18,0.134 0.245,0.366 0.065,0.23 -0.047,0.51 -0.087,0.216 -0.224,0.331 -0.137,0.116 -0.293,0.151 -0.153,0.035 -0.289,0.012 -0.183,-0.035 -0.504,-0.164 l -0.308,-0.124 -0.355,0.884 z m 1.256,-1.756 -0.267,0.665 0.259,0.104 q 0.28,0.112 0.389,0.114 0.109,0.001 0.193,-0.056 0.086,-0.056 0.128,-0.16 0.051,-0.128 0.01,-0.241 -0.042,-0.113 -0.148,-0.18 -0.078,-0.05 -0.334,-0.153 z m 2.87,3.183 -0.531,-0.161 -0.044,-0.613 -0.966,-0.294 -0.366,0.488 -0.517,-0.157 1.676,-2.13 0.516,0.157 z m -0.607,-1.229 -0.06,-0.998 -0.599,0.797 z m 1.179,1.323 0.428,-2.054 -0.734,-0.153 0.087,-0.418 1.965,0.409 -0.087,0.418 -0.732,-0.153 -0.428,2.054 z m 1.558,0.306 0.282,-2.509 1.861,0.209 -0.048,0.425 -1.354,-0.152 -0.062,0.556 1.26,0.141 -0.048,0.423 -1.26,-0.141 -0.077,0.683 1.402,0.157 -0.048,0.423 z m 2.347,0.242 0.018,-2.525 0.496,0.004 1.021,1.694 0.012,-1.686 0.474,0.003 -0.018,2.525 -0.512,-0.004 -1.006,-1.654 -0.012,1.647 z m 3.279,-0.889 0.485,-0.117 q 0.079,0.241 0.23,0.338 0.153,0.097 0.383,0.065 0.244,-0.034 0.352,-0.154 0.11,-0.121 0.091,-0.26 -0.012,-0.089 -0.074,-0.143 -0.06,-0.056 -0.196,-0.084 -0.093,-0.018 -0.42,-0.053 -0.42,-0.044 -0.604,-0.168 -0.259,-0.174 -0.301,-0.471 -0.027,-0.191 0.058,-0.372 0.086,-0.182 0.277,-0.298 0.193,-0.116 0.481,-0.156 0.471,-0.066 0.737,0.107 0.268,0.173 0.328,0.516 l -0.502,0.093 q -0.059,-0.188 -0.179,-0.257 -0.118,-0.071 -0.331,-0.041 -0.22,0.031 -0.332,0.139 -0.072,0.069 -0.058,0.166 0.012,0.089 0.096,0.141 0.107,0.067 0.487,0.102 0.381,0.035 0.57,0.105 0.19,0.067 0.312,0.215 0.123,0.146 0.156,0.383 0.03,0.215 -0.063,0.419 -0.093,0.204 -0.299,0.327 -0.206,0.121 -0.532,0.167 -0.474,0.066 -0.759,-0.116 -0.285,-0.184 -0.393,-0.597 z m 2.551,0.431 -0.522,-2.471 0.499,-0.105 0.522,2.471 z m 0.279,-2.623 0.896,-0.257 q 0.303,-0.087 0.475,-0.086 0.232,0.002 0.43,0.118 0.198,0.117 0.345,0.328 0.146,0.209 0.244,0.55 0.086,0.3 0.074,0.538 -0.015,0.291 -0.137,0.503 -0.092,0.161 -0.289,0.293 -0.148,0.098 -0.419,0.176 l -0.922,0.265 z m 0.608,0.27 0.461,1.608 0.366,-0.105 q 0.205,-0.059 0.29,-0.108 0.111,-0.064 0.168,-0.158 0.059,-0.094 0.062,-0.271 0.003,-0.178 -0.078,-0.46 -0.081,-0.281 -0.174,-0.418 -0.093,-0.136 -0.207,-0.195 -0.114,-0.059 -0.26,-0.049 -0.109,0.006 -0.409,0.092 z m 1.97,0.314 q -0.145,-0.358 -0.136,-0.644 0.007,-0.211 0.087,-0.409 0.081,-0.198 0.218,-0.334 0.181,-0.181 0.467,-0.297 0.517,-0.21 0.957,-0.014 0.441,0.195 0.673,0.766 0.23,0.567 0.051,1.012 -0.179,0.444 -0.695,0.653 -0.522,0.211 -0.959,0.018 -0.437,-0.195 -0.664,-0.753 z m 0.48,-0.213 q 0.161,0.398 0.428,0.529 0.266,0.13 0.549,0.016 0.283,-0.114 0.381,-0.39 0.099,-0.278 -0.066,-0.685 -0.163,-0.402 -0.42,-0.529 -0.256,-0.127 -0.548,-0.009 -0.292,0.118 -0.39,0.392 -0.098,0.272 0.066,0.676 z m 4.626,-0.798 -0.49,0.26 -0.464,-0.403 -0.891,0.474 0.085,0.604 -0.478,0.254 -0.317,-2.691 0.476,-0.253 z m -1.298,-0.442 -0.747,-0.664 0.139,0.988 z m 1.528,0.291 -1.401,-2.101 0.893,-0.595 q 0.337,-0.225 0.527,-0.269 0.191,-0.046 0.379,0.037 0.188,0.084 0.312,0.27 0.158,0.236 0.122,0.484 -0.037,0.246 -0.287,0.471 0.191,-0.012 0.344,0.025 0.154,0.036 0.47,0.18 l 0.53,0.239 -0.507,0.338 -0.612,-0.253 q -0.327,-0.136 -0.429,-0.159 -0.103,-0.024 -0.186,-0.002 -0.084,0.021 -0.23,0.118 l -0.086,0.057 0.585,0.877 z m -0.384,-1.495 0.314,-0.209 q 0.305,-0.204 0.364,-0.28 0.059,-0.076 0.06,-0.168 0.001,-0.092 -0.062,-0.186 -0.071,-0.106 -0.171,-0.132 -0.1,-0.029 -0.214,0.023 -0.056,0.027 -0.314,0.199 l -0.331,0.221 z"
         id="path48" />
      <path
         d="m 219.051,212.418 0.396,-0.318 1.001,1.246 q 0.196,0.244 0.259,0.411 0.08,0.218 0.013,0.445 -0.069,0.225 -0.317,0.425 -0.291,0.234 -0.579,0.198 -0.289,-0.038 -0.544,-0.352 l 0.34,-0.344 q 0.143,0.164 0.242,0.199 0.15,0.054 0.281,-0.051 0.133,-0.107 0.128,-0.226 -0.006,-0.121 -0.198,-0.36 z m 1.456,0.483 q -0.269,-0.277 -0.369,-0.545 -0.073,-0.198 -0.073,-0.412 0.001,-0.214 0.076,-0.391 0.1,-0.236 0.321,-0.451 0.4,-0.389 0.881,-0.373 0.482,0.014 0.912,0.457 0.426,0.439 0.429,0.919 0.002,0.479 -0.397,0.866 -0.404,0.393 -0.881,0.378 -0.479,-0.015 -0.899,-0.448 z m 0.365,-0.378 q 0.299,0.308 0.596,0.329 0.296,0.02 0.514,-0.192 0.219,-0.212 0.206,-0.505 -0.013,-0.295 -0.319,-0.61 -0.302,-0.311 -0.588,-0.331 -0.285,-0.021 -0.511,0.198 -0.226,0.22 -0.213,0.51 0.012,0.289 0.315,0.601 z"
         id="path50" />
    </g>
  </g>
  <g
     id="g1255">
    <g
       transform="translate(-165.852,-153.599)"
       id="g174">
      <path
         id="circle54"
         style="opacity:0.999;fill:url(#D);fill-rule:evenodd;"
         d="m 221.33599,194.638 a 16.158001,16.158001 0 0 1 -16.158,16.158 16.158001,16.158001 0 0 1 -16.158,-16.158 16.158001,16.158001 0 0 1 16.158,-16.158 16.158001,16.158001 0 0 1 16.158,16.158 z"
         class="F G" />
      <g
         class="C"
         id="g60">
        <path
           d="m 211.259,179.664 c 5.91,2.402 10.076,8.202 10.076,14.974 a 16.16,16.16 0 0 1 -16.158,16.158"
           fill="none"
           stroke-width="0.97"
           stroke-linecap="round"
           class="F H"
           id="path56" />
        <path
           id="use58"
           d="m 209.069,209.929 c 2.536,-1.353 3.641,-3.333 3.494,-5.378 -1.755,1 -3.542,2.268 -3.494,5.378 z"
           style="fill:#fff000;stroke-width:0.265;" />
      </g>
      <path
         id="use62"
         d="m 210.129,208.465 c 1.612,-0.91 1.359,-1.887 1.787,-2.839 -0.744,0.933 -1.54,1.861 -1.787,2.839 z"
         style="fill:#fff889;" />
      <g
         transform="matrix(0.853467,-0.286185,0.286185,0.853467,-25.004065,88.880342)"
         id="g68">
        <path
           id="use64"
           d="m 209.069,209.929 c 2.536,-1.353 3.641,-3.333 3.494,-5.378 -1.755,1 -3.542,2.268 -3.494,5.378 z"
           style="fill:#fff000;stroke:#8e8600;stroke-width:0.265;" />
        <path
           id="use66"
           d="m 210.129,208.465 c 1.612,-0.91 1.359,-1.887 1.787,-2.839 -0.744,0.933 -1.54,1.861 -1.787,2.839 z"
           style="fill:#fff889;" />
      </g>
      <g
         transform="matrix(0.718997,-0.54162,0.54162,0.718997,-46.990183,167.32625)"
         id="g74">
        <path
           id="use70"
           d="m 209.069,209.929 c 2.536,-1.353 3.641,-3.333 3.494,-5.378 -1.755,1 -3.542,2.268 -3.494,5.378 z"
           style="fill:#fff000;stroke:#8e8600;stroke-width:0.265;" />
        <path
           id="use72"
           d="m 210.129,208.465 c 1.612,-0.91 1.359,-1.887 1.787,-2.839 -0.744,0.933 -1.54,1.861 -1.787,2.839 z"
           style="fill:#fff889;" />
      </g>
      <g
         transform="matrix(0.579747,-0.840449,0.840449,0.579747,-77.668455,255.25086)"
         id="g80">
        <path
           id="use76"
           d="m 209.069,209.929 c 2.536,-1.353 3.641,-3.333 3.494,-5.378 -1.755,1 -3.542,2.268 -3.494,5.378 z"
           style="fill:#fff000;stroke:#8e8600;stroke-width:0.265;" />
        <path
           id="use78"
           d="m 210.129,208.465 c 1.612,-0.91 1.359,-1.887 1.787,-2.839 -0.744,0.933 -1.54,1.861 -1.787,2.839 z"
           style="fill:#fff889;" />
      </g>
      <g
         transform="matrix(0.42925,-0.926394,0.926394,0.42925,-63.26268,299.8272)"
         id="g86">
        <path
           id="use82"
           d="m 209.069,209.929 c 2.536,-1.353 3.641,-3.333 3.494,-5.378 -1.755,1 -3.542,2.268 -3.494,5.378 z"
           style="fill:#fff000;stroke:#8e8600;stroke-width:0.265;" />
        <path
           id="use84"
           d="m 210.129,208.465 c 1.612,-0.91 1.359,-1.887 1.787,-2.839 -0.744,0.933 -1.54,1.861 -1.787,2.839 z"
           style="fill:#fff889;" />
      </g>
      <g
         transform="matrix(0.081345,-1.017764,1.017764,0.081345,-9.907867,386.56257)"
         id="g92">
        <path
           id="use88"
           d="m 209.069,209.929 c 2.536,-1.353 3.641,-3.333 3.494,-5.378 -1.755,1 -3.542,2.268 -3.494,5.378 z"
           style="fill:#fff000;stroke:#8e8600;stroke-width:0.265;" />
        <path
           id="use90"
           d="m 210.129,208.465 c 1.612,-0.91 1.359,-1.887 1.787,-2.839 -0.744,0.933 -1.54,1.861 -1.787,2.839 z"
           style="fill:#fff889;" />
      </g>
      <g
         transform="matrix(-0.300996,-0.975634,0.975634,-0.300996,76.551419,452.81689)"
         id="g98">
        <path
           id="use94"
           d="m 209.069,209.929 c 2.536,-1.353 3.641,-3.333 3.494,-5.378 -1.755,1 -3.542,2.268 -3.494,5.378 z"
           style="fill:#fff000;stroke:#8e8600;stroke-width:0.265;" />
        <path
           id="use96"
           d="m 210.129,208.465 c 1.612,-0.91 1.359,-1.887 1.787,-2.839 -0.744,0.933 -1.54,1.861 -1.787,2.839 z"
           style="fill:#fff889;" />
      </g>
      <g
         transform="matrix(-0.499552,-0.890454,0.890454,-0.499552,130.56105,472.25865)"
         id="g104">
        <path
           id="use100"
           d="m 209.069,209.929 c 2.536,-1.353 3.641,-3.333 3.494,-5.378 -1.755,1 -3.542,2.268 -3.494,5.378 z"
           style="fill:#fff000;stroke:#8e8600;stroke-width:0.265;" />
        <path
           id="use102"
           d="m 210.129,208.465 c 1.612,-0.91 1.359,-1.887 1.787,-2.839 -0.744,0.933 -1.54,1.861 -1.787,2.839 z"
           style="fill:#fff889;" />
      </g>
      <g
         transform="matrix(-0.33481,-0.964553,0.964553,-0.33481,78.86515,451.53059)"
         id="g110">
        <path
           id="use106"
           d="m 209.069,209.929 c 2.536,-1.353 3.641,-3.333 3.494,-5.378 -1.755,1 -3.542,2.268 -3.494,5.378 z"
           style="fill:#fff000;stroke:#8e8600;stroke-width:0.265;" />
        <path
           id="use108"
           d="m 210.129,208.465 c 1.612,-0.91 1.359,-1.887 1.787,-2.839 -0.744,0.933 -1.54,1.861 -1.787,2.839 z"
           style="fill:#fff889;" />
      </g>
      <g
         transform="matrix(-1.007928,0.162917,0.162917,1.007928,389.34678,-65.576965)"
         id="g116">
        <path
           id="use112"
           d="m 209.069,209.929 c 2.536,-1.353 3.641,-3.333 3.494,-5.378 -1.755,1 -3.542,2.268 -3.494,5.378 z"
           style="fill:#fff000;stroke:#8e8600;stroke-width:0.265;" />
        <path
           id="use114"
           d="m 210.129,208.465 c 1.612,-0.91 1.359,-1.887 1.787,-2.839 -0.744,0.933 -1.54,1.861 -1.787,2.839 z"
           style="fill:#fff889;" />
      </g>
      <g
         transform="matrix(-1.016638,-0.094378,-0.094378,1.016638,448.81549,-11.214305)"
         id="g122">
        <path
           id="use118"
           d="m 209.069,209.929 c 2.536,-1.353 3.641,-3.333 3.494,-5.378 -1.755,1 -3.542,2.268 -3.494,5.378 z"
           style="fill:#fff000;stroke:#8e8600;stroke-width:0.265;" />
        <path
           id="use120"
           d="m 210.129,208.465 c 1.612,-0.91 1.359,-1.887 1.787,-2.839 -0.744,0.933 -1.54,1.861 -1.787,2.839 z"
           style="fill:#fff889;" />
      </g>
      <g
         transform="matrix(-0.963858,-0.336806,-0.336806,0.963858,492.06463,54.724502)"
         id="g128">
        <path
           id="use124"
           d="m 209.069,209.929 c 2.536,-1.353 3.641,-3.333 3.494,-5.378 -1.755,1 -3.542,2.268 -3.494,5.378 z"
           style="fill:#fff000;stroke:#8e8600;stroke-width:0.265;" />
        <path
           id="use126"
           d="m 210.129,208.465 c 1.612,-0.91 1.359,-1.887 1.787,-2.839 -0.744,0.933 -1.54,1.861 -1.787,2.839 z"
           style="fill:#fff889;" />
      </g>
      <g
         transform="matrix(-0.779675,-0.659217,-0.659217,0.779675,522.72972,164.72963)"
         id="g134">
        <path
           id="use130"
           d="m 209.069,209.929 c 2.536,-1.353 3.641,-3.333 3.494,-5.378 -1.755,1 -3.542,2.268 -3.494,5.378 z"
           style="fill:#fff000;stroke:#8e8600;stroke-width:0.265;" />
        <path
           id="use132"
           d="m 210.129,208.465 c 1.612,-0.91 1.359,-1.887 1.787,-2.839 -0.744,0.933 -1.54,1.861 -1.787,2.839 z"
           style="fill:#fff889;" />
      </g>
      <g
         transform="matrix(-0.449761,-0.916611,-0.916611,0.449761,508.11015,293.35334)"
         id="g140">
        <path
           id="use136"
           d="m 209.069,209.929 c 2.536,-1.353 3.641,-3.333 3.494,-5.378 -1.755,1 -3.542,2.268 -3.494,5.378 z"
           style="fill:#fff000;stroke:#8e8600;stroke-width:0.265;" />
        <path
           id="use138"
           d="m 210.129,208.465 c 1.612,-0.91 1.359,-1.887 1.787,-2.839 -0.744,0.933 -1.54,1.861 -1.787,2.839 z"
           style="fill:#fff889;" />
      </g>
      <g
         transform="matrix(-0.25812,-0.987843,-0.987843,0.25812,481.72916,353.19047)"
         id="g146">
        <path
           id="use142"
           d="m 209.069,209.929 c 2.536,-1.353 3.641,-3.333 3.494,-5.378 -1.755,1 -3.542,2.268 -3.494,5.378 z"
           style="fill:#fff000;stroke:#8e8600;stroke-width:0.265;" />
        <path
           id="use144"
           d="m 210.129,208.465 c 1.612,-0.91 1.359,-1.887 1.787,-2.839 -0.744,0.933 -1.54,1.861 -1.787,2.839 z"
           style="fill:#fff889;" />
      </g>
      <g
         transform="matrix(-0.149604,-1.00999,-1.00999,0.149604,461.6087,384.7591)"
         id="g152">
        <path
           id="use148"
           d="m 209.069,209.929 c 2.536,-1.353 3.641,-3.333 3.494,-5.378 -1.755,1 -3.542,2.268 -3.494,5.378 z"
           style="fill:#fff000;stroke:#8e8600;stroke-width:0.265;" />
        <path
           id="use150"
           d="m 210.129,208.465 c 1.612,-0.91 1.359,-1.887 1.787,-2.839 -0.744,0.933 -1.54,1.861 -1.787,2.839 z"
           style="fill:#fff889;" />
      </g>
      <g
         transform="matrix(0.256861,-0.988172,-0.988172,-0.256861,368.0794,469.00493)"
         id="g158">
        <path
           id="use154"
           d="m 209.069,209.929 c 2.536,-1.353 3.641,-3.333 3.494,-5.378 -1.755,1 -3.542,2.268 -3.494,5.378 z"
           style="fill:#fff000;stroke:#8e8600;stroke-width:0.265;" />
        <path
           id="use156"
           d="m 210.129,208.465 c 1.612,-0.91 1.359,-1.887 1.787,-2.839 -0.744,0.933 -1.54,1.861 -1.787,2.839 z"
           style="fill:#fff889;" />
      </g>
      <g
         transform="matrix(0.466925,-0.907988,-0.907988,-0.466925,303.50367,498.26119)"
         id="g164">
        <path
           id="use160"
           d="m 209.069,209.929 c 2.536,-1.353 3.641,-3.333 3.494,-5.378 -1.755,1 -3.542,2.268 -3.494,5.378 z"
           style="fill:#fff000;stroke:#8e8600;stroke-width:0.265;" />
        <path
           id="use162"
           d="m 210.129,208.465 c 1.612,-0.91 1.359,-1.887 1.787,-2.839 -0.744,0.933 -1.54,1.861 -1.787,2.839 z"
           style="fill:#fff889;" />
      </g>
      <path
         d="m 204.808,178.674 c 0,0.439 -0.326,0.975 -0.714,1.173 -0.098,0.05 -0.403,0.129 -0.678,0.176 -1.716,0.291 -3.744,0.993 -6.003,2.078 l -1.004,0.425 c -0.065,0 -0.261,-0.083 -0.434,-0.185 -0.173,-0.102 -0.331,-0.169 -0.35,-0.15 -0.019,0.019 0.048,0.198 0.148,0.397 0.258,0.509 0.241,0.666 -0.096,0.889 -0.583,0.386 -1.589,1.29 -2.124,1.91 -0.705,0.815 -1.273,1.61 -2.096,2.933 -0.358,0.576 -0.7,1.066 -0.759,1.089 -0.059,0.023 -0.207,0.041 -0.329,0.041 h -0.222 l 0.203,0.212 0.203,0.212 -0.083,0.679 c -0.239,1.944 -0.263,4.139 -0.071,6.414 l 0.077,0.916 -0.237,0.244 -0.237,0.244 h 0.227 c 0.216,0 0.245,0.035 0.578,0.696 0.946,1.878 2.356,3.851 4.275,5.987 l 0.649,0.722 -0.144,0.269 c -0.161,0.3 -0.158,0.301 0.345,0.098 0.219,-0.088 0.279,-0.068 1.428,0.491 2.253,1.095 4.259,1.798 5.971,2.092 0.579,0.1 0.844,0.298 1.15,0.86 0.154,0.282 0.212,0.5 0.235,0.879 0.028,0.451 0.009,0.546 -0.175,0.896 -0.452,0.858 -1.043,1.006 -2.571,0.643 h -0.001 c -3.334,-0.792 -5.477,-1.721 -7.352,-3.186 -0.635,-0.496 -0.631,-0.488 -0.438,-1.012 l 0.061,-0.189 c 0,-0.013 -0.119,0.037 -0.265,0.112 -0.451,0.23 -0.543,0.193 -1.413,-0.579 -1.957,-1.736 -3.386,-3.533 -4.285,-5.389 -0.39,-0.805 -0.818,-1.943 -0.818,-2.177 0,-0.075 0.158,-0.247 0.372,-0.404 l 0.372,-0.273 -0.343,-0.049 c -0.415,-0.059 -0.557,-0.178 -0.75,-0.627 -0.3,-0.698 -0.395,-1.542 -0.394,-3.5 0.001,-2.393 0.236,-4.371 0.63,-5.314 a 0.95,0.95 0 0 1 0.853,-0.539 h 0.276 l -0.276,-0.337 c -0.245,-0.3 -0.275,-0.378 -0.267,-0.701 0.03,-1.253 2.029,-4.281 3.822,-5.79 1.106,-0.931 1.783,-1.309 2.343,-1.309 0.346,0 0.358,-0.007 0.281,-0.15 -0.197,-0.369 0.073,-0.783 0.863,-1.326 1.312,-0.901 4.257,-1.881 6.707,-2.234 1.309,-0.188 1.767,-0.201 2.044,-0.054 0.414,0.219 0.812,0.82 0.812,1.228 z"
         fill="#8e8600"
         id="path166" />
      <path
         d="m 203.985,179.373 c 0.538,-0.423 0.5,-1.454 -0.071,-1.903 -0.236,-0.185 -0.407,-0.195 -0.648,-0.037 -0.508,0.333 -0.507,1.179 0.001,1.845 0.223,0.293 0.431,0.32 0.718,0.095 z"
         fill="#383500"
         id="path168" />
      <path
         d="m 202.375,211.418 c -0.176,-0.612 -0.019,-1.75 0.296,-2.15 0.167,-0.212 0.187,-0.198 -0.469,-0.33 -1.148,-0.231 -3.454,-1.101 -5.097,-1.924 -0.954,-0.478 -1.197,-0.546 -1.536,-0.434 -0.433,0.143 -0.925,0.794 -1.006,1.333 l -0.041,0.275 0.593,0.435 c 1.687,1.238 3.409,2.008 6.053,2.706 l 1.226,0.316 c 0.027,0.003 0.019,-0.099 -0.018,-0.226 z m -8.127,-4.253 a 2.28,2.28 0 0 0 0.856,-0.97 l 0.126,-0.28 -0.873,-1.005 c -1.851,-2.131 -3.015,-3.783 -3.886,-5.517 -0.266,-0.529 -0.321,-0.594 -0.57,-0.668 -0.225,-0.067 -0.347,-0.061 -0.661,0.033 -0.53,0.159 -1.055,0.469 -1.196,0.706 -0.112,0.189 -0.108,0.225 0.088,0.785 0.763,2.181 2.355,4.419 4.539,6.382 0.93,0.836 1.042,0.874 1.578,0.534 z m -4.985,-8.915 c 0.821,-0.268 0.785,-0.211 0.688,-1.09 -0.121,-1.092 -0.118,-4.731 0.005,-6.097 l 0.103,-1.136 -0.27,-0.233 c -0.3,-0.259 -0.747,-0.385 -1.366,-0.385 -0.643,0 -0.767,0.239 -1.039,2.004 -0.206,1.334 -0.269,4.56 -0.11,5.602 0.138,0.904 0.315,1.392 0.548,1.513 0.233,0.121 0.723,0.058 1.442,-0.177 z m 1.476,-9.638 c 0.487,-0.828 1.571,-2.425 2.045,-3.016 0.759,-0.944 2.035,-2.144 2.642,-2.483 0.078,-0.044 0.072,-0.147 -0.034,-0.574 -0.147,-0.59 -0.292,-0.821 -0.693,-1.096 -0.447,-0.308 -0.735,-0.323 -1.221,-0.063 -1.555,0.831 -3.565,3.046 -4.571,5.037 -0.565,1.118 -0.658,1.733 -0.321,2.11 0.257,0.288 0.851,0.49 1.446,0.493 l 0.465,0.002 z m 6.616,-6.985 c 1.811,-0.862 3.425,-1.461 4.882,-1.812 l 0.703,-0.184 c 0.014,-0.011 -0.07,-0.159 -0.185,-0.329 -0.383,-0.563 -0.463,-1.042 -0.268,-1.59 0.055,-0.156 0.093,-0.29 0.084,-0.299 -0.009,-0.009 -0.481,0.063 -1.05,0.159 -1.841,0.312 -3.694,0.882 -5.102,1.57 -0.882,0.431 -1.606,0.959 -1.606,1.17 0,0.076 0.108,0.376 0.241,0.667 0.258,0.567 0.52,0.827 1.015,1.008 l 0.286,0.107 a 39.13,39.13 0 0 0 0.999,-0.467 z"
         class="B"
         id="path170" />
      <path
         d="m 195.893,180.295 c -0.14,-0.218 -0.141,-0.238 -0.025,-0.327 0.268,-0.206 1.878,-0.947 2.586,-1.19 0.814,-0.279 2.352,-0.705 2.394,-0.663 0.014,0.014 0.047,0.156 0.072,0.314 l 0.046,0.288 -0.774,0.201 c -1.209,0.313 -2.122,0.647 -3.138,1.148 l -0.974,0.461 c -0.021,0 -0.105,-0.104 -0.187,-0.232 z m -6.482,6.988 -0.228,-0.161 0.254,-0.46 c 0.372,-0.673 0.899,-1.444 1.484,-2.173 0.513,-0.639 2.066,-2.337 2.173,-2.376 0.056,-0.02 0.434,0.434 0.434,0.523 0,0.026 -0.35,0.414 -0.778,0.862 -1.191,1.247 -2.069,2.374 -2.674,3.435 -0.162,0.284 -0.327,0.516 -0.367,0.514 -0.04,-0.002 -0.174,-0.075 -0.299,-0.164 z m -1.831,9.501 c -0.1,-0.568 -0.126,-2.028 -0.052,-2.944 0.099,-1.224 0.354,-3.046 0.438,-3.135 0.084,-0.089 0.638,0.083 0.638,0.201 a 22.08,22.08 0 0 1 -0.139,1.014 c -0.228,1.508 -0.31,2.696 -0.263,3.821 l 0.088,1.16 c 0.037,0.096 -0.014,0.115 -0.312,0.115 -0.346,0 -0.358,-0.007 -0.397,-0.232 z m 4.551,8.641 a 16.44,16.44 0 0 1 -1.01,-1.173 c -0.814,-1.071 -2.207,-3.32 -2.131,-3.441 0.042,-0.068 0.604,-0.261 0.636,-0.219 a 53.83,53.83 0 0 1 0.475,0.815 c 0.86,1.493 1.73,2.697 2.678,3.708 l 0.398,0.425 -0.239,0.239 -0.239,0.239 z m 7.93,5.291 c -1.004,-0.34 -2.646,-1.128 -3.855,-1.85 l -0.884,-0.539 c -0.038,-0.038 0.37,-0.52 0.445,-0.527 0.033,-0.003 0.387,0.194 0.785,0.438 1.165,0.713 2.841,1.521 3.835,1.848 0.507,0.167 0.922,0.331 0.922,0.365 0,0.154 -0.217,0.556 -0.3,0.555 -0.051,0 -0.478,-0.131 -0.949,-0.29 z"
         fill="#8e8600"
         id="path172" />
    </g>
    <g
       fill="#7f7f7f"
       id="g180"
       transform="translate(-64.912,-153.599)">
      <path
         d="m 100.983,196.054 c -2.29,-0.423 -4.023,-1.877 -5.315,-4.46 -0.547,-1.094 -0.805,-2.217 -0.805,-3.501 0.001,-1.571 0.445,-2.671 1.613,-3.985 0.219,-0.246 0.38,-0.546 0.577,-1.069 0.15,-0.4 0.295,-0.727 0.322,-0.727 0.027,0 0.106,0.179 0.175,0.398 0.077,0.245 0.158,0.384 0.209,0.362 2.163,-0.931 3.529,-1.217 4.992,-1.047 1.093,0.127 1.939,0.421 2.979,1.034 0.264,0.156 0.783,0.334 1.588,0.545 l 1.196,0.361 c 0,0.026 -0.169,0.103 -0.375,0.17 -0.206,0.067 -0.401,0.146 -0.434,0.176 -0.078,0.071 1.273,1.052 1.951,1.416 0.294,0.158 0.994,0.481 1.555,0.717 l 1.892,0.881 c 0.835,0.432 2.079,1.19 2.033,1.236 -0.012,0.012 -1.114,-0.088 -2.448,-0.223 l -2.643,-0.245 h -0.218 l -0.088,1.945 -0.132,2.718 c -0.054,0.939 0.013,1.061 -0.914,-1.666 -0.717,-2.109 -0.95,-2.69 -1.221,-3.047 l -0.173,-0.228 -0.406,0.14 c -0.223,0.077 -0.428,0.115 -0.454,0.085 -0.026,-0.03 -0.265,-0.543 -0.529,-1.139 -0.29,-0.655 -0.541,-1.125 -0.633,-1.185 -0.615,-0.399 -1.622,-0.555 -2.426,-0.376 -1.153,0.256 -1.955,0.869 -2.45,1.871 -0.257,0.519 -0.274,0.595 -0.274,1.2 0,0.61 0.016,0.679 0.293,1.252 0.165,0.341 0.612,1.028 1.022,1.57 1.188,1.571 1.719,2.835 1.719,4.096 0,0.568 -0.052,0.668 -0.284,0.544 -0.127,-0.068 -0.144,-0.056 -0.144,0.104 0,0.18 -0.002,0.181 -0.625,0.175 -0.344,-0.004 -0.849,-0.048 -1.124,-0.099 z"
         id="path176" />
      <path
         d="m 104.053,206.604 c -1.445,-0.11 -3.017,-0.636 -3.705,-1.24 -0.212,-0.186 -0.412,-0.255 -1.332,-0.462 -2.191,-0.491 -2.925,-0.866 -2.384,-1.22 0.139,-0.091 0.281,-0.109 0.612,-0.079 0.365,0.033 0.425,0.023 0.39,-0.068 -0.173,-0.451 -0.075,-0.85 0.228,-0.926 0.389,-0.098 1.988,0.699 2.689,1.34 l 0.401,0.366 1.87,-0.013 1.903,-0.046 c 0.018,-0.018 -0.029,-0.077 -0.105,-0.13 l -0.314,-0.239 -0.176,-0.142 0.561,0.104 c 0.517,0.096 0.583,0.095 0.854,-0.022 0.447,-0.193 0.454,-0.217 0.15,-0.528 -0.304,-0.311 -0.303,-0.32 0.276,-0.204 0.387,0.078 0.416,0.073 0.59,-0.089 a 2.96,2.96 0 0 0 0.321,-0.363 l 0.138,-0.192 -0.409,-0.129 c -0.387,-0.122 -0.398,-0.131 -0.198,-0.174 0.116,-0.025 0.364,-0.049 0.55,-0.054 0.186,-0.005 0.339,-0.034 0.339,-0.065 0,-0.031 -0.095,-0.167 -0.211,-0.303 -0.116,-0.136 -0.213,-0.264 -0.214,-0.285 -10e-4,-0.021 0.126,-0.025 0.283,-0.01 0.157,0.015 0.286,0.007 0.286,-0.018 0,-0.025 -0.081,-0.205 -0.18,-0.4 l -0.18,-0.355 h 0.327 c 0.278,0 0.322,-0.019 0.291,-0.125 -0.02,-0.069 -0.058,-0.245 -0.084,-0.393 l -0.047,-0.268 h -1.86 -1.86 l -0.791,-0.222 -0.791,-0.222 -1.347,-1.297 c -1.335,-1.286 -1.345,-1.298 -1.162,-1.381 0.177,-0.081 0.243,-0.034 1.49,1.054 l 1.305,1.138 0.391,0.001 0.391,10e-4 -0.784,-0.795 c -0.431,-0.437 -0.725,-0.774 -0.653,-0.749 0.072,0.025 0.169,0.045 0.215,0.045 0.046,0 0.437,0.309 0.869,0.686 l 0.785,0.686 0.571,-0.043 0.874,-0.043 c 0.167,0 0.303,-0.026 0.303,-0.058 0,-0.191 -0.246,-0.308 -0.999,-0.475 -0.791,-0.176 -0.85,-0.202 -1.629,-0.732 -0.641,-0.436 -0.781,-0.561 -0.678,-0.601 0.264,-0.104 0.43,-0.047 1.09,0.369 0.669,0.423 0.679,0.426 1.209,0.426 0.437,0 0.578,-0.029 0.77,-0.161 0.13,-0.088 0.236,-0.181 0.236,-0.207 0,-0.026 -0.195,-0.245 -0.433,-0.489 -0.383,-0.391 -0.497,-0.463 -0.975,-0.61 -0.582,-0.179 -0.659,-0.245 -0.661,-0.555 l -0.001,-0.201 0.535,0.296 c 0.294,0.163 0.536,0.269 0.536,0.237 0,-0.032 -0.053,-0.291 -0.12,-0.574 -0.11,-0.469 -0.175,-0.582 -0.715,-1.24 l -0.594,-0.743 c 0,-0.01 0.263,0.058 0.585,0.152 l 0.654,0.17 c 0.038,0 -0.195,-0.245 -0.517,-0.544 -0.322,-0.299 -0.573,-0.557 -0.557,-0.573 0.016,-0.016 0.122,0.007 0.235,0.051 l 0.884,0.32 0.678,0.241 -1.12,-1.086 -1.233,-1.318 c -0.062,-0.128 -0.097,-0.232 -0.077,-0.232 0.02,0 0.896,0.616 1.947,1.37 l 2.272,1.491 c 1.484,0.497 3.631,2.235 4.644,3.759 0.35,0.526 0.474,0.851 0.499,1.303 0.012,0.216 0.108,0.617 0.213,0.892 0.254,0.663 0.317,1.771 0.144,2.544 -0.19,0.852 -0.676,1.558 -1.299,1.887 -0.143,0.075 -0.473,0.347 -0.733,0.603 -0.675,0.664 -1.617,1.114 -2.61,1.248 -0.194,0.026 -0.451,0.121 -0.571,0.211 -0.685,0.513 -1.906,0.792 -3.074,0.703 z"
         id="path178" />
    </g>
    <g
       fill="#ffffff"
       id="g190"
       transform="translate(-64.912,-153.599)">
      <path
         d="m 99.85,194.865 c -0.287,-0.527 -0.473,-1.117 -0.473,-1.496 0,-0.408 0.243,-1.096 0.501,-1.423 a 2.48,2.48 0 0 1 0.61,-0.507 l 0.377,-0.213 -0.307,-0.442 c -0.683,-0.983 -0.928,-1.703 -0.882,-2.591 0.043,-0.82 0.379,-1.505 1.086,-2.212 1.299,-1.3 3.218,-1.523 4.869,-0.565 0.483,0.28 1.499,1.317 1.949,1.988 0.506,0.755 0.806,1.407 1.261,2.742 l 0.389,1.088 c 0.003,-0.02 0.048,-0.832 0.099,-1.805 l 0.131,-1.808 c 0.021,-0.021 0.88,0.046 1.908,0.15 l 1.897,0.161 c 0.046,-0.046 -1.441,-0.763 -2.49,-1.202 -1.319,-0.551 -1.829,-0.854 -3.281,-1.948 -1.35,-1.018 -2.692,-1.802 -3.553,-2.075 a 6.68,6.68 0 0 0 -2.585,-0.252 c -0.649,0.073 -1.501,0.244 -1.637,0.328 -0.038,0.024 0.094,0.136 0.293,0.25 0.82,0.469 0.706,0.894 -0.385,1.438 -0.356,0.177 -1.392,0.569 -1.392,0.527 0,-0.012 0.178,-0.145 0.395,-0.294 0.939,-0.647 0.988,-1.08 0.156,-1.364 l -0.33,-0.112 -0.498,0.262 c -1.141,0.6 -2.249,2.096 -2.548,3.444 -0.166,0.746 -0.106,2.157 0.131,3.086 0.176,0.691 0.597,1.644 0.748,1.695 0.09,0.03 0.322,-0.383 0.411,-0.731 0.03,-0.118 0.076,-0.648 0.101,-1.178 l 0.046,-0.964 0.13,0.286 c 0.439,0.963 0.437,0.955 0.437,2.7 v 1.629 l 0.377,0.42 c 0.402,0.448 1.32,1.092 1.906,1.337 0.196,0.082 0.366,0.139 0.378,0.127 0.012,-0.012 -0.09,-0.226 -0.226,-0.476 z"
         id="path182" />
      <path
         d="m 102.589,195.661 c 0.079,-0.05 0.107,-0.203 0.107,-0.588 0,-0.676 -0.291,-1.578 -0.759,-2.356 -0.579,-0.963 -0.667,-1.055 -1.006,-1.055 -0.255,0 -0.335,0.042 -0.6,0.319 -0.372,0.388 -0.477,0.736 -0.444,1.467 0.029,0.641 0.299,1.247 0.817,1.84 0.345,0.394 0.387,0.408 1.313,0.43 0.255,0.006 0.512,-0.02 0.571,-0.057 z m 5.842,3.782 c 0.663,-0.408 1.495,-0.697 2.622,-0.909 l 0.291,-0.055 -0.274,-0.593 -0.274,-0.593 -0.32,0.048 a 2.67,2.67 0 0 1 -0.655,-0.002 l -0.335,-0.05 0.382,-0.154 c 0.588,-0.238 0.598,-0.309 0.114,-0.86 -0.406,-0.462 -0.553,-0.551 -0.651,-0.393 -0.076,0.122 -0.615,0.346 -0.839,0.348 -0.176,0.001 -0.195,-0.019 -0.152,-0.159 a 2.76,2.76 0 0 1 0.148,-0.353 c 0.117,-0.23 0.125,-0.444 0.023,-0.635 -0.072,-0.134 -0.089,-0.129 -0.377,0.108 -0.317,0.26 -0.608,0.399 -0.834,0.399 -0.12,0 -0.116,-0.019 0.044,-0.179 0.229,-0.229 0.385,-0.604 0.385,-0.924 0,-0.22 -0.034,-0.268 -0.284,-0.396 -0.398,-0.203 -1.198,-0.377 -1.486,-0.323 -0.278,0.052 -0.805,0.508 -1.069,0.925 l -0.178,0.282 0.123,0.521 c 0.115,0.486 0.152,0.548 0.561,0.932 1.086,1.019 1.883,1.952 2.413,2.828 l 0.258,0.4 c 0.009,0.001 0.173,-0.094 0.365,-0.212 z"
         id="path184" />
      <path
         d="m 111.65,202.353 c 0.309,-0.627 0.414,-1.271 0.309,-1.886 -0.076,-0.444 -0.468,-1.382 -0.577,-1.381 -0.101,10e-4 -1.664,0.426 -2.356,0.641 l -0.719,0.223 v 0.513 c 0,0.5 -0.134,1.034 -0.312,1.25 -0.071,0.086 -0.069,0.114 0.012,0.141 0.055,0.018 0.344,0.157 0.642,0.307 0.609,0.307 1.282,0.833 1.646,1.285 l 0.243,0.302 0.443,-0.467 c 0.247,-0.261 0.543,-0.671 0.67,-0.929 z m -3.712,2.759 c 0.929,-0.288 1.71,-0.644 2.062,-0.941 l 0.237,-0.199 -0.426,-0.437 c -0.584,-0.598 -1.648,-1.3 -1.983,-1.306 -0.044,-0.001 -0.204,0.212 -0.357,0.474 -0.153,0.262 -0.522,0.732 -0.822,1.046 l -0.545,0.57 0.31,0.407 c 0.264,0.347 0.554,0.625 0.667,0.639 0.017,0.002 0.402,-0.111 0.857,-0.252 z"
         id="path186" />
      <path
         d="m 105.736,205.954 0.814,-0.26 0.273,-0.114 -0.258,-0.195 c -0.142,-0.107 -0.378,-0.35 -0.525,-0.54 -0.225,-0.291 -0.295,-0.339 -0.449,-0.305 -1.21,0.263 -1.51,0.29 -3.234,0.288 -0.972,-0.001 -1.767,0.004 -1.767,0.01 0,0.006 0.242,0.18 0.538,0.384 a 5.74,5.74 0 0 0 1.77,0.826 c 0.539,0.151 2.125,0.099 2.837,-0.094 z"
         id="path188" />
    </g>
    <path
       d="m 36.553,40.38 c -0.176,-0.123 -0.217,-0.447 -0.074,-0.589 0.143,-0.142 0.471,-0.102 0.593,0.083 0.084,0.128 0.094,0.214 0.039,0.357 -0.039,0.103 -0.102,0.188 -0.139,0.188 a 0.57,0.57 0 0 0 -0.163,0.037 c -0.053,0.02 -0.168,-0.014 -0.256,-0.075 z"
       id="path192" />
  </g>
</svg>
